<svg width="159" height="30" viewBox="0 0 159 30" fill="none" xmlns="http://www.w3.org/2000/svg">
<g clip-path="url(#clip0_43_209)">
<path d="M159 0L107 4.5787V30H122.76V13.1161L143.24 15.2146V30H159V0Z" fill="#FAA61A"/>
<mask id="mask0_43_209" style="mask-type:luminance" maskUnits="userSpaceOnUse" x="0" y="6" width="100" height="18">
<path d="M99.0636 6.09375H0V23.9062H99.0636V6.09375Z" fill="white"/>
</mask>
<g mask="url(#mask0_43_209)">
<path d="M21.4716 16.1249L20.1444 11.3437L18.9595 13.1249L19.6705 15.5156C19.7179 15.7499 19.8127 15.9374 19.8601 16.1249C20.3814 17.8593 20.6184 17.9062 22.5618 17.9062H43.9387L45.0288 16.7343L44.8392 16.1249H21.4716Z" fill="black"/>
</g>
<mask id="mask1_43_209" style="mask-type:luminance" maskUnits="userSpaceOnUse" x="0" y="6" width="100" height="18">
<path d="M99.0636 6.09375H0V23.9062H99.0636V6.09375Z" fill="white"/>
</mask>
<g mask="url(#mask1_43_209)">
<path d="M15.8313 16.125V12.8907H14.4093V16.125H11.8498C11.4706 16.125 11.2336 16.125 10.9966 16.0782C10.4278 15.9844 10.3804 15.7032 10.1434 14.6719L9.62205 11.9063L8.34228 13.6875L8.91107 16.0313L9.43246 18.2813C7.4891 18.5157 5.49835 18.7032 4.26598 18.7032C2.32263 18.7032 1.46945 18.1407 1.46945 16.9688C1.46945 16.7344 1.51685 16.4063 1.61165 16.0313C1.80124 15.3282 2.18043 14.3907 2.70182 13.4063H1.23246C0.711069 14.3438 0.379277 15.2344 0.189682 16.0313C0.0948842 16.5 0.0474854 16.9219 0.0474854 17.2969C0.0474854 19.2657 1.42205 20.3907 3.79199 20.3907C5.35616 20.3907 7.10991 20.2032 8.76887 19.9219C10.0486 19.6875 10.6174 19.0313 10.57 17.7188C10.9018 17.8125 11.281 17.8125 11.9446 17.8125H13.7931C14.3619 17.8125 14.8359 17.625 15.1677 17.1563C15.5469 17.6719 16.0209 17.8125 16.5423 17.8125H18.6752L19.7654 16.6407L19.5758 16.0313H15.8313V16.125Z" fill="black"/>
<path d="M70.9877 6.74844L69.4462 8.27335L70.9881 9.79781L72.5296 8.27291L70.9877 6.74844Z" fill="black"/>
<path d="M55.2004 6.74018L53.6587 8.26486L55.2004 9.78955L56.7421 8.26486L55.2004 6.74018Z" fill="black"/>
</g>
<mask id="mask2_43_209" style="mask-type:luminance" maskUnits="userSpaceOnUse" x="0" y="6" width="100" height="18">
<path d="M99.0636 6.09375H0V23.9062H99.0636V6.09375Z" fill="white"/>
</mask>
<g mask="url(#mask2_43_209)">
<path d="M46.7827 16.125L46.3561 14.5313C45.6925 12.0469 45.3133 11.625 42.0902 11.625H25.2162L30.0509 8.0625V6.09375L24.0786 10.5L24.9792 13.5H44.4127L44.9341 15.3281C45.0289 15.6094 45.0763 15.8906 45.1237 16.125C45.5503 17.8594 45.5029 17.9063 48.0624 17.9063H54.9353L56.0254 16.7344L55.8358 16.125H46.7827Z" fill="black"/>
</g>
<mask id="mask3_43_209" style="mask-type:luminance" maskUnits="userSpaceOnUse" x="0" y="6" width="100" height="18">
<path d="M99.0636 6.09375H0V23.9062H99.0636V6.09375Z" fill="white"/>
</mask>
<g mask="url(#mask3_43_209)">
<path d="M59.1537 17.9532H68.1121L67.1167 16.1719H57.8265L56.2624 10.6876L55.0774 12.3751L56.0254 15.5157C56.0728 15.7501 56.1676 15.9376 56.215 16.1251C56.689 17.8594 56.926 17.9532 59.1537 17.9532Z" fill="black"/>
</g>
<mask id="mask4_43_209" style="mask-type:luminance" maskUnits="userSpaceOnUse" x="0" y="6" width="100" height="18">
<path d="M99.0636 6.09375H0V23.9062H99.0636V6.09375Z" fill="white"/>
</mask>
<g mask="url(#mask4_43_209)">
<path d="M93.5654 16.125L93.7075 15.8438L93.3758 14.7188C92.9018 12.8907 92.6174 12.4219 90.437 12.4219H82.9954L81.8578 16.125L73.8948 16.1719H73.7052L72.1411 10.7344L70.9561 12.4219L71.8093 15.3282L71.3827 16.1719L71.2879 16.3594C69.2971 20.3438 68.681 20.9063 66.9272 20.9063H63.8937L65.5052 22.6875H67.1642C69.1075 22.6875 70.4347 21.4688 72.0937 18.0469C72.2359 17.7657 72.3307 17.5313 72.3781 17.2969C72.4729 17.0157 72.5203 16.6875 72.4729 16.3125C72.8995 17.5313 73.326 17.8125 74.2266 17.8594C74.511 17.9063 74.8902 17.9063 75.3168 17.9063H80.5781C82.5688 17.9063 82.9006 17.9532 83.4694 16.125C83.5168 15.9844 83.5642 15.8438 83.6116 15.7032L84.0856 14.1563H91.622L92.1434 16.125H83.8012L83.6116 16.7813L84.7018 17.9532H92.5226L93.5654 16.125Z" fill="black"/>
<path d="M61.6117 20.7488L60.0699 22.2735L61.6117 23.7982L63.1534 22.2735L61.6117 20.7488Z" fill="black"/>
<path d="M58.2037 20.7606L56.6622 22.2855L58.2042 23.8099L59.7457 22.285L58.2037 20.7606Z" fill="black"/>
</g>
<mask id="mask5_43_209" style="mask-type:luminance" maskUnits="userSpaceOnUse" x="0" y="6" width="99" height="18">
<path d="M99 6H0V24H99V6Z" fill="white"/>
</mask>
<g mask="url(#mask5_43_209)">
<path d="M97.926 13.5L96.7885 9.84375L95.6509 11.4375L96.8832 15.2812L96.5041 15.9844L96.3619 16.2187C94.2289 20.2031 93.6601 20.7656 92.0486 20.7656H88.1619L89.7734 22.5469H92.2856C94.2289 22.5469 95.4613 21.2812 97.1676 17.9531C97.2624 17.7187 97.4046 17.4844 97.4994 17.2969C97.689 16.8281 97.8786 16.4062 97.9734 15.9844C98.2578 15.1875 98.2104 14.2969 97.926 13.5Z" fill="black"/>
</g>
</g>
<defs>
<clipPath id="clip0_43_209">
<rect width="159" height="30" fill="white"/>
</clipPath>
</defs>
</svg>
